<?xml version="1.0" encoding="UTF-8" standalone="no"?>
<svg
   width="178"
   height="178"
   viewBox="0 0 178 178"
   fill="none"
   version="1.1"
   xmlns="http://www.w3.org/2000/svg">
  <path d="M89 60 L50 30 L30 20" stroke="#000000" stroke-width="4" stroke-linecap="round" fill="none"/>
  <path d="M89 70 L45 55 L25 50" stroke="#000000" stroke-width="4" stroke-linecap="round" fill="none"/>
  <path d="M89 100 L45 115 L25 120" stroke="#000000" stroke-width="4" stroke-linecap="round" fill="none"/>
  <path d="M89 115 L50 140 L30 155" stroke="#000000" stroke-width="4" stroke-linecap="round" fill="none"/>
  <path d="M89 60 L128 30 L148 20" stroke="#000000" stroke-width="4" stroke-linecap="round" fill="none"/>
  <path d="M89 70 L133 55 L153 50" stroke="#000000" stroke-width="4" stroke-linecap="round" fill="none"/>
  <path d="M89 100 L133 115 L153 120" stroke="#000000" stroke-width="4" stroke-linecap="round" fill="none"/>
  <path d="M89 115 L128 140 L148 155" stroke="#000000" stroke-width="4" stroke-linecap="round" fill="none"/>
  <circle cx="89" cy="89" r="30" fill="#000000"/>
  <circle cx="79" cy="84" r="5" fill="#ffffff"/>
  <circle cx="99" cy="84" r="5" fill="#ffffff"/>
  <circle cx="80" cy="83" r="2" fill="#000000"/>
  <circle cx="100" cy="83" r="2" fill="#000000"/>
</svg>
